<svg xmlns="http://www.w3.org/2000/svg" width="20" height="19" viewBox="0 0 20 19" fill="none">
  <path d="M17.2 4.59998H2.8C1.80589 4.59998 1 5.40586 1 6.39998V15.4C1 16.3941 1.80589 17.2 2.8 17.2H17.2C18.1941 17.2 19 16.3941 19 15.4V6.39998C19 5.40586 18.1941 4.59998 17.2 4.59998Z" stroke="#D0CDCE" stroke-width="2" stroke-linecap="round" stroke-linejoin="round"/>
  <path d="M13.6 17.2V2.8C13.6 2.32261 13.4104 1.86477 13.0728 1.52721C12.7352 1.18964 12.2774 1 11.8 1H8.19999C7.7226 1 7.26477 1.18964 6.9272 1.52721C6.58964 1.86477 6.39999 2.32261 6.39999 2.8V17.2" stroke="#D0CDCE" stroke-width="2" stroke-linecap="round" stroke-linejoin="round"/>
</svg>