<svg xmlns="http://www.w3.org/2000/svg" width="22" height="19" viewBox="0 0 22 19" fill="none">
  <path d="M15.5455 17.3637V15.5455C15.5455 14.5811 15.1623 13.6562 14.4804 12.9742C13.7984 12.2923 12.8735 11.9091 11.9091 11.9091H4.63636C3.67194 11.9091 2.74702 12.2923 2.06507 12.9742C1.38312 13.6562 1 14.5811 1 15.5455V17.3637" stroke="#D0CDCE" stroke-width="2" stroke-linecap="round" stroke-linejoin="round"/>
  <path d="M8.27272 8.27273C10.281 8.27273 11.9091 6.64467 11.9091 4.63636C11.9091 2.62806 10.281 1 8.27272 1C6.26441 1 4.63635 2.62806 4.63635 4.63636C4.63635 6.64467 6.26441 8.27273 8.27272 8.27273Z" stroke="#D0CDCE" stroke-width="2" stroke-linecap="round" stroke-linejoin="round"/>
  <path d="M21 17.3636V15.5455C20.9994 14.7398 20.7312 13.9571 20.2376 13.3203C19.744 12.6835 19.0528 12.2287 18.2727 12.0273" stroke="#D0CDCE" stroke-width="2" stroke-linecap="round" stroke-linejoin="round"/>
  <path d="M14.6364 1.11813C15.4185 1.31841 16.1118 1.77332 16.6069 2.41114C17.102 3.04897 17.3708 3.83343 17.3708 4.64086C17.3708 5.44829 17.102 6.23275 16.6069 6.87058C16.1118 7.5084 15.4185 7.96331 14.6364 8.16359" stroke="#D0CDCE" stroke-width="2" stroke-linecap="round" stroke-linejoin="round"/>
</svg>