<svg xmlns="http://www.w3.org/2000/svg" width="26" height="26" viewBox="0 0 26 26" fill="none">
  <path fill-rule="evenodd" clip-rule="evenodd" d="M20.5834 22.6296C20.5834 23.2941 20.0645 23.8333 19.4227 23.8333C18.7808 23.8333 18.2619 23.2941 18.2619 22.6296C18.2619 19.311 15.6585 16.6111 12.4584 16.6111C9.25829 16.6111 6.6548 19.311 6.6548 22.6296C6.6548 23.2941 6.13596 23.8333 5.49409 23.8333C4.85221 23.8333 4.33337 23.2941 4.33337 22.6296C4.33337 17.9833 7.97918 14.2037 12.4584 14.2037C16.9376 14.2037 20.5834 17.9833 20.5834 22.6296ZM12.4584 4.57406C13.7386 4.57406 14.7798 5.65379 14.7798 6.98147C14.7798 8.30916 13.7386 9.38888 12.4584 9.38888C11.1781 9.38888 10.1369 8.30916 10.1369 6.98147C10.1369 5.65379 11.1781 4.57406 12.4584 4.57406ZM12.4584 11.7963C15.0189 11.7963 17.1012 9.63684 17.1012 6.98147C17.1012 4.3261 15.0189 2.16666 12.4584 2.16666C9.89784 2.16666 7.81552 4.3261 7.81552 6.98147C7.81552 9.63684 9.89784 11.7963 12.4584 11.7963Z" fill="#D0CDCE"/>
</svg>