<svg xmlns="http://www.w3.org/2000/svg" width="90" height="60" viewBox="0 0 90 60" fill="none">
  <path d="M14.2884 0H0V12.7714H14.3195C23.3682 12.7714 30.73 20.5004 30.73 30C30.73 39.4996 23.3682 47.228 14.3195 47.228H0V60H14.2884C30.0457 60 42.8646 46.5425 42.8646 30C42.8646 13.4581 30.0451 0 14.2884 0ZM75.6822 46.7552C66.8826 46.7552 59.7223 39.2402 59.7223 30.0018C59.7223 20.7645 66.8809 13.2471 75.6822 13.2471H90V0H75.7122C59.9549 0 47.1354 13.4575 47.1354 30C47.1354 46.5419 59.9549 60 75.7122 60H90V46.7535H75.6822V46.7552Z" fill="#4A2760"/>
</svg>