<svg fill="none" height="63" viewBox="0 0 99 63" width="99" xmlns="http://www.w3.org/2000/svg" xmlns:xlink="http://www.w3.org/1999/xlink"><filter id="a" color-interpolation-filters="sRGB" filterUnits="userSpaceOnUse" height="1329" width="1329" x="-615" y="-389"><feFlood flood-opacity="0" result="BackgroundImageFix"/><feBlend in="SourceGraphic" in2="BackgroundImageFix" mode="normal" result="shape"/><feGaussianBlur result="effect1_foregroundBlur_1_1060" stdDeviation="150"/></filter><clipPath id="b"><path d="m-165-144h428v932h-428z"/></clipPath><path d="m0 0h99v63h-99z" fill="#e5e5e5"/><g clip-path="url(#b)"><path d="m0 0h428v932h-428z" fill="#fff" transform="translate(-165 -144)"/><path d="m-165-144h428v932h-428z" fill="#4a2860"/><g filter="url(#a)" opacity=".2"><circle cx="49.5" cy="275.5" fill="#fff" r="364.5"/></g><path d="m15.6644 0h-15.6644v13.4099h15.6985c9.92 0 17.9908 8.1155 17.9908 18.0901s-8.0708 18.0894-17.9908 18.0894h-15.6985v13.4106h15.6644c17.2746 0 31.3281-14.1304 31.3281-31.5 0-17.369-14.0541-31.5-31.3281-31.5zm67.3059 49.093c-9.647 0-17.4968-7.8908-17.4968-17.5911 0-9.6991 7.848-17.5924 17.4968-17.5924h15.6966v-13.9095h-15.6637c-17.2747 0-31.3287 14.1304-31.3287 31.5 0 17.369 14.054 31.5 31.3287 31.5h15.6637v-13.9089h-15.6966z" fill="#fff"/></g></svg>